<?xml version="1.0" encoding="UTF-8" standalone="no"?>
<!-- Created with Inkscape (http://www.inkscape.org/) -->

<svg
   width="109.32879mm"
   height="74.531395mm"
   viewBox="0 0 109.32879 74.531395"
   version="1.1"
   id="svg1"
   inkscape:version="1.3.2 (091e20e, 2023-11-25, custom)"
   sodipodi:docname="elliottpatersontext.svg"
   xmlns:inkscape="http://www.inkscape.org/namespaces/inkscape"
   xmlns:sodipodi="http://sodipodi.sourceforge.net/DTD/sodipodi-0.dtd"
   xmlns="http://www.w3.org/2000/svg"
   xmlns:svg="http://www.w3.org/2000/svg">
  <sodipodi:namedview
     id="namedview1"
     pagecolor="#ffffff"
     bordercolor="#000000"
     borderopacity="0.25"
     inkscape:showpageshadow="2"
     inkscape:pageopacity="0.0"
     inkscape:pagecheckerboard="0"
     inkscape:deskcolor="#d1d1d1"
     inkscape:document-units="mm"
     inkscape:zoom="1.4039843"
     inkscape:cx="55.912307"
     inkscape:cy="-176.99628"
     inkscape:window-width="3000"
     inkscape:window-height="1876"
     inkscape:window-x="-12"
     inkscape:window-y="-12"
     inkscape:window-maximized="1"
     inkscape:current-layer="layer1" />
  <defs
     id="defs1" />
  <g
     inkscape:label="Layer 1"
     inkscape:groupmode="layer"
     id="layer1"
     transform="translate(-44.192394,-97.654456)">
    <g
       id="text1"
       style="font-size:14.1111px;font-family:'Marck Script';-inkscape-font-specification:'Marck Script';stroke-width:0.264583"
       aria-label="Elliott&#10;Paterson"
       transform="matrix(2.4463906,0,0,2.4463906,-76.82822,-77.624802)">
      <path
         d="m 58.768263,74.442106 q 0,0.705555 -0.677332,1.255888 -0.663222,0.550333 -1.53811,0.804333 -0.860778,0.254 -1.66511,0.254 -0.211667,0 -0.310444,-0.01411 v -0.479778 q 0.02822,0 0.818443,-0.127 0.790222,-0.141111 1.326444,-0.479777 0.550333,-0.338667 0.550333,-0.762 0,-0.507999 -0.762,-0.507999 -1.03011,0 -1.947332,0.705555 -0.917221,0.705555 -0.917221,1.481665 0,0.776111 0.959555,1.001888 0.211666,0.05644 0.282222,0.112889 0.07055,0.05644 0.07055,0.197556 0,0.141111 -0.141111,0.239888 -0.127,0.08467 -0.606777,0.254 -2.596442,0.889 -2.596442,2.765776 0,0.381 0.141111,0.64911 0.860777,-1.100665 2.229553,-1.792109 1.368777,-0.691444 2.638776,-0.691444 0.663222,0 1.058333,0.296333 0.39511,0.282222 0.39511,0.790222 0,0.790221 -0.733777,1.580443 -0.733777,0.790221 -1.904998,1.28411 -1.157111,0.507999 -2.314221,0.507999 -1.142999,0 -1.806221,-0.423333 -0.01411,0.01411 -0.126999,0.211667 -0.282222,0.564444 -0.479778,0.790222 l -0.465666,-0.197556 q 0.09878,-0.395111 0.578555,-1.199443 -0.649111,-0.733778 -0.649111,-1.636888 0,-0.917221 0.733778,-1.735665 0.747888,-0.832555 2.074331,-1.368777 -0.663221,-0.550333 -0.663221,-1.142999 0,-0.804333 0.846666,-1.636888 0.846666,-0.846666 2.06022,-1.368776 1.227666,-0.522111 2.30011,-0.522111 0.564444,0 0.90311,0.254 0.338666,0.239888 0.338666,0.64911 z m -2.963331,5.714996 q -0.832555,0 -1.947332,0.634999 -1.100665,0.635 -1.792109,1.509888 0.564444,0.635 1.594554,0.635 1.044221,0 2.031998,-0.663222 1.001889,-0.677333 1.001889,-1.453443 0,-0.310445 -0.239889,-0.479778 -0.239889,-0.183444 -0.649111,-0.183444 z m 5.729116,1.03011 0.296333,0.239889 q -0.479777,0.747888 -0.832555,1.086555 -0.338666,0.324555 -0.761999,0.324555 -0.423333,0 -0.691444,-0.338667 -0.268111,-0.338666 -0.268111,-0.846666 0,-0.987777 1.298221,-4.247441 1.298222,-3.273775 2.666998,-5.757329 l 0.620889,0.338667 q -1.382888,2.681109 -2.497665,5.333996 -1.114777,2.638775 -1.114777,3.795886 0,0.663221 0.493889,0.663221 0.39511,0 0.790221,-0.592666 z m 3.824107,0 0.296333,0.239889 q -0.479777,0.747888 -0.832554,1.086555 -0.338667,0.324555 -0.762,0.324555 -0.423333,0 -0.691444,-0.338667 -0.268111,-0.338666 -0.268111,-0.846666 0,-0.987777 1.298222,-4.247441 1.298221,-3.273775 2.666997,-5.757329 l 0.620889,0.338667 q -1.382888,2.681109 -2.497665,5.333996 -1.114777,2.638775 -1.114777,3.795886 0,0.663221 0.493889,0.663221 0.395111,0 0.790221,-0.592666 z m 4.501439,-4.628441 q -0.790221,0 -0.790221,-0.634999 0,-0.352778 0.197555,-0.592666 0.197556,-0.239889 0.508,-0.239889 0.310444,0 0.507999,0.183444 0.197556,0.183444 0.197556,0.479778 0,0.296333 -0.169333,0.550332 -0.169334,0.254 -0.451556,0.254 z m -0.183444,4.162775 0.282222,0.239889 q -0.338666,0.64911 -0.90311,1.114776 -0.550333,0.451556 -1.001888,0.451556 -0.790222,0 -0.790222,-1.100666 0,-1.368777 1.128888,-3.570109 0.254,-0.479777 0.296333,-0.564444 l 0.606777,0.366889 q -0.296333,0.536222 -0.733777,1.707443 -0.423333,1.171222 -0.423333,1.509888 0,0.324555 0.141111,0.465666 0.141111,0.141111 0.338667,0.141111 0.380999,0 1.058332,-0.761999 z m 5.108214,-2.370665 q 0.366889,0.606777 0.366889,1.340555 0,1.142999 -0.790222,2.046109 -0.790221,0.888999 -1.862665,0.888999 -0.818444,0 -1.28411,-0.465666 -0.451555,-0.479777 -0.451555,-1.312332 0,-1.340555 1.044221,-2.398887 1.044221,-1.072444 2.342443,-1.072444 0.239888,0 0.338666,0.01411 l 0.04233,0.465666 q -1.128888,0 -1.876776,0.649111 -0.747888,0.649111 -0.747888,1.66511 0,0.606777 0.296333,0.987777 0.296333,0.366889 0.860777,0.366889 0.578555,0 0.917222,-0.508 0.338666,-0.508 0.338666,-1.185332 0,-0.691444 -0.268111,-1.255888 z m 3.951099,2.610554 0.310444,0.352777 q -0.352777,0.550333 -0.860777,0.860777 -0.493888,0.310444 -1.001888,0.310444 -0.508,0 -0.804333,-0.282222 -0.296333,-0.296333 -0.296333,-0.804332 0,-1.185333 0.889,-3.273776 -0.719667,0.112889 -1.439333,0.338667 l -0.09878,-0.550333 -0.01411,-0.01411 q 0.705555,-0.296333 1.848555,-0.479778 0.112888,-0.211666 0.507999,-1.03011 0.790222,-1.622776 1.128888,-2.102554 l 0.606778,0.239889 q -0.141111,0.310444 -0.493889,1.044221 -0.352777,0.719666 -0.790222,1.636888 0.635,-0.04233 1.001889,-0.04233 0.366888,0 0.564444,0.112888 v 0.606778 q -0.197556,-0.04233 -0.578556,-0.04233 -0.366888,0 -1.326443,0.127 -0.832555,1.862666 -0.832555,2.709332 0,0.324555 0.197556,0.536221 0.211666,0.211667 0.550332,0.211667 0.352778,0 0.931333,-0.465666 z m 4.656662,0 0.310444,0.352777 q -0.352777,0.550333 -0.860777,0.860777 -0.493888,0.310444 -1.001888,0.310444 -0.508,0 -0.804333,-0.282222 -0.296333,-0.296333 -0.296333,-0.804332 0,-1.185333 0.888999,-3.273776 -0.719666,0.112889 -1.439332,0.338667 l -0.09878,-0.550333 -0.01411,-0.01411 q 0.705555,-0.296333 1.848555,-0.479778 0.112888,-0.211666 0.507999,-1.03011 0.790222,-1.622776 1.128888,-2.102554 l 0.606778,0.239889 q -0.141111,0.310444 -0.493889,1.044221 -0.352777,0.719666 -0.790222,1.636888 0.635,-0.04233 1.001889,-0.04233 0.366888,0 0.564444,0.112888 v 0.606778 q -0.197556,-0.04233 -0.578556,-0.04233 -0.366888,0 -1.326443,0.127 -0.832555,1.862666 -0.832555,2.709332 0,0.324555 0.197555,0.536221 0.211667,0.211667 0.550333,0.211667 0.352778,0 0.931333,-0.465666 z"
         id="path2" />
      <path
         d="m 54.845377,92.419648 q 1.157111,-0.790222 1.580444,-0.959555 0.423333,-0.183444 0.987777,-0.183444 0.578555,0 0.888999,0.395111 0.310444,0.39511 0.310444,1.128888 0,1.312332 -0.846666,2.82222 -0.846666,1.509887 -2.116665,2.539998 -1.269999,1.015999 -2.398887,1.015999 -0.282222,0 -0.64911,-0.02822 -0.691444,1.467555 -1.255888,2.215445 -0.564444,0.74788 -1.128888,0.74788 -0.352778,0 -0.550333,-0.254 -0.197556,-0.254 -0.197556,-0.70555 0,-1.453442 1.340555,-3.880552 1.340554,-2.44122 2.94922,-3.908774 0.225777,-0.931333 0.225777,-1.354666 0,-0.437444 -0.02822,-0.663222 l 1.015999,-0.169333 q 0,0.09878 -0.127,1.241777 z m -3.231441,5.714995 0.39511,0.197556 q 0.889,-1.735665 1.495777,-3.894664 -1.298221,1.622777 -2.130776,3.301998 -0.832555,1.679221 -0.832555,2.582327 0,0.26811 0.169333,0.26811 0.127,0 0.451555,-0.52211 0.324556,-0.536218 0.550333,-1.086551 -0.183444,-0.08467 -0.352777,-0.253999 z m 1.28411,0.395111 0.268111,0.01411 q 1.368776,0 2.56822,-1.439332 0.677333,-0.832555 1.142999,-1.904998 0.479777,-1.072444 0.479777,-1.820332 0,-0.409222 -0.225777,-0.649111 -0.211667,-0.239889 -0.592667,-0.239889 -0.691443,0 -1.834443,0.762 -0.253999,1.904998 -1.80622,5.277552 z m 10.103547,0.225778 0.324556,0.239889 q -0.197556,0.423333 -0.733778,0.804332 -0.52211,0.380997 -0.959554,0.380997 -0.832555,0 -0.832555,-0.874885 0,-0.409222 0.211666,-0.973666 l -0.52211,0.536222 q -0.762,0.77611 -1.326444,1.044221 -0.550333,0.268108 -1.086555,0.268108 -0.536221,0 -0.818443,-0.29633 -0.268111,-0.310444 -0.268111,-0.846666 0,-0.987777 0.761999,-1.947332 0.762,-0.973666 1.947332,-1.580443 1.185332,-0.606777 2.370665,-0.620889 l 0.02822,0.465667 -0.592666,0.127 q -1.28411,0.282222 -2.271887,1.128888 -0.973666,0.846666 -0.973666,1.693332 0,0.832555 0.677333,0.832555 0.634999,0 1.566332,-0.889 0.931332,-0.888999 1.552221,-2.088443 l 0.592666,0.352778 q -0.874888,1.763887 -0.874888,2.243665 0,0.197555 0.127,0.338666 0.141111,0.127 0.26811,0.127 0.141111,0 0.183445,-0.01411 0.04233,-0.01411 0.08467,-0.02822 0.04233,-0.02822 0.09878,-0.07056 0.07056,-0.04233 0.112889,-0.08467 0.05644,-0.04233 0.169333,-0.127 0.112889,-0.08467 0.183444,-0.141111 z m 3.86644,-0.155222 0.310445,0.352777 Q 66.8257,99.50342 66.3177,99.813864 q -0.493888,0.310446 -1.001888,0.310446 -0.507999,0 -0.804332,-0.282223 -0.296334,-0.296334 -0.296334,-0.804333 0,-1.185333 0.889,-3.273775 -0.719666,0.112888 -1.439332,0.338666 l -0.09878,-0.550333 -0.01411,-0.01411 q 0.705555,-0.296333 1.848554,-0.479777 0.112889,-0.211667 0.507999,-1.030111 0.790222,-1.622776 1.128889,-2.102554 l 0.606777,0.239889 q -0.141111,0.310444 -0.493889,1.044221 -0.352777,0.719667 -0.790221,1.636888 0.634999,-0.04233 1.001888,-0.04233 0.366888,0 0.564444,0.112889 v 0.606777 q -0.197556,-0.04233 -0.578555,-0.04233 -0.366889,0 -1.326444,0.127 -0.832555,1.862665 -0.832555,2.709331 0,0.324555 0.197556,0.536222 0.211666,0.211666 0.550333,0.211666 0.352777,0 0.931332,-0.465666 z m 5.305773,-0.08467 0.324555,0.254 q -0.437444,0.606777 -1.199443,1.015999 -0.762,0.395111 -1.481666,0.395111 -0.719666,0 -1.15711,-0.423333 -0.437444,-0.423333 -0.437444,-1.114777 0,-1.298221 1.368777,-2.554109 1.382887,-1.255888 2.793997,-1.255888 0.931333,0 0.931333,0.733777 0,0.762 -0.987777,1.53811 -0.973666,0.776111 -2.751665,1.41111 0.127,0.324555 0.395111,0.508 0.268111,0.183444 0.550333,0.183444 0.606777,0 1.650999,-0.691444 z m -2.666998,-0.42333 q 1.142999,-0.395111 1.961443,-0.987777 0.818444,-0.592666 0.818444,-1.086555 0,-0.183444 -0.141111,-0.324555 -0.141111,-0.141111 -0.324556,-0.141111 -0.663221,0 -1.439332,0.832555 -0.761999,0.818444 -0.874888,1.707443 z m 8.043335,-2.906886 q 0.352777,0 0.578555,0.239888 0.225778,0.239889 0.225778,0.620889 0,0.761999 -0.874889,1.608665 l -0.338666,-0.268111 q 0.197555,-0.437444 0.197555,-0.634999 0,-0.381 -0.423333,-0.381 -0.423333,0 -0.804332,0.536222 -0.381,0.536222 -0.903111,1.66511 -0.507999,1.114776 -0.77611,1.580442 l -0.804333,-0.352777 q 0.776111,-1.763887 0.888999,-2.074331 0.381,-1.100666 0.381,-2.793998 l 0.790222,-0.211667 q -0.04233,0.917222 -0.127,1.425221 -0.08467,0.493889 -0.409222,1.622777 1.425221,-2.582331 2.398887,-2.582331 z m 5.672655,-0.522111 -0.126999,0.550333 q -0.239889,-0.02822 -0.620889,-0.02822 -1.41111,0 -1.41111,0.931332 0,0.197556 0.564444,1.15711 0.578555,0.959555 0.578555,1.28411 0,0.762 -0.522111,1.199444 -0.507999,0.423328 -1.368776,0.423328 -1.185333,0 -1.904999,-1.312327 l 0.536222,-0.381 q 0.197555,0.155222 0.423333,0.381 0.225778,0.211666 0.338666,0.296333 0.268111,0.239888 0.592667,0.239888 0.324555,0 0.564444,-0.225777 0.239888,-0.239889 0.239888,-0.578555 0,-0.352778 -0.620888,-1.298221 -0.606777,-0.945444 -0.606777,-1.326444 0,-0.691444 0.578555,-1.058332 0.592666,-0.366889 1.53811,-0.366889 0.959554,0 1.227665,0.112889 z m 4.078099,1.326443 q 0.366889,0.606778 0.366889,1.340555 0,1.142999 -0.790222,2.046109 -0.790222,0.889 -1.862665,0.889 -0.818444,0 -1.28411,-0.465667 -0.451555,-0.479777 -0.451555,-1.312332 0,-1.340555 1.044221,-2.398887 1.044221,-1.072444 2.342443,-1.072444 0.239888,0 0.338666,0.01411 l 0.04233,0.465667 q -1.128888,0 -1.876776,0.64911 -0.747888,0.649111 -0.747888,1.66511 0,0.606777 0.296333,0.987777 0.296333,0.366889 0.860777,0.366889 0.578555,0 0.917221,-0.508 0.338667,-0.507999 0.338667,-1.185332 0,-0.691444 -0.268111,-1.255888 z m 6.561652,2.483554 0.296334,0.225777 q -0.310445,0.620889 -0.860778,1.044222 -0.536221,0.423331 -0.973665,0.423331 -0.437445,0 -0.691444,-0.253998 -0.254,-0.254 -0.254,-0.634999 0,-0.381 0.479777,-1.326444 0.493889,-0.959555 0.493889,-1.41111 0,-0.197555 -0.169333,-0.352777 -0.155223,-0.169334 -0.381,-0.169334 -0.719666,0 -1.453443,1.100666 -0.733778,1.086555 -1.636888,3.146776 l -0.846666,-0.296334 q 0.268111,-1.636887 0.761999,-3.189108 0.508,-1.566332 0.931333,-2.243665 l 0.578555,0.183444 q -0.395111,1.001888 -1.001888,3.45722 1.947332,-3.33022 3.584219,-3.33022 0.352778,0 0.578555,0.239889 0.239889,0.239889 0.239889,0.564444 0,0.324555 -0.08467,0.592666 -0.08467,0.254 -0.536222,1.213555 -0.437444,0.945443 -0.437444,1.185332 0,0.239889 0.141111,0.381 0.141111,0.127 0.268111,0.127 0.126999,0 0.211666,-0.04233 0.08467,-0.04233 0.183444,-0.127 0.112889,-0.08467 0.197556,-0.155222 0.08467,-0.07055 0.197555,-0.183444 0.127,-0.127 0.183444,-0.169333 z"
         id="path3" />
    </g>
  </g>
</svg>
