<?xml version="1.0" encoding="UTF-8" standalone="no"?>
<!-- Created with Inkscape (http://www.inkscape.org/) -->

<svg
   width="210mm"
   height="297mm"
   viewBox="0 0 210 297"
   version="1.1"
   id="svg1"
   xml:space="preserve"
   inkscape:version="1.3.2 (091e20e, 2023-11-25, custom)"
   sodipodi:docname="EPLogo.svg"
   xmlns:inkscape="http://www.inkscape.org/namespaces/inkscape"
   xmlns:sodipodi="http://sodipodi.sourceforge.net/DTD/sodipodi-0.dtd"
   xmlns="http://www.w3.org/2000/svg"
   xmlns:svg="http://www.w3.org/2000/svg"><sodipodi:namedview
     id="namedview1"
     pagecolor="#ffffff"
     bordercolor="#000000"
     borderopacity="0.25"
     inkscape:showpageshadow="2"
     inkscape:pageopacity="0.0"
     inkscape:pagecheckerboard="0"
     inkscape:deskcolor="#d1d1d1"
     inkscape:document-units="mm"
     inkscape:zoom="0.64241788"
     inkscape:cx="631.20908"
     inkscape:cy="727.71947"
     inkscape:window-width="3000"
     inkscape:window-height="1876"
     inkscape:window-x="-12"
     inkscape:window-y="-12"
     inkscape:window-maximized="1"
     inkscape:current-layer="layer1" /><defs
     id="defs1"><filter
       style="color-interpolation-filters:sRGB;"
       inkscape:label="Invert"
       id="filter1"
       x="0"
       y="0"
       width="1"
       height="1"><feColorMatrix
         values="1 0 0 0 0 0 1 0 0 0 0 0 1 0 0 -0.21 -0.72 -0.07 2 0 "
         result="fbSourceGraphic"
         id="feColorMatrix1" /><feColorMatrix
         result="fbSourceGraphicAlpha"
         in="fbSourceGraphic"
         values="0 0 0 -1 0 0 0 0 -1 0 0 0 0 -1 0 0 0 0 1 0"
         id="feColorMatrix2" /><feColorMatrix
         id="feColorMatrix3"
         values="1 0 0 0 0 0 1 0 0 0 0 0 1 0 0 -0.21 -0.72 -0.07 2 0 "
         result="fbSourceGraphic"
         in="fbSourceGraphic" /><feColorMatrix
         result="fbSourceGraphicAlpha"
         in="fbSourceGraphic"
         values="0 0 0 -1 0 0 0 0 -1 0 0 0 0 -1 0 0 0 0 1 0"
         id="feColorMatrix4" /><feColorMatrix
         id="feColorMatrix5"
         values="-1 0 0 0 1 0 -1 0 0 1 0 0 -1 0 1 0.21 0.72 0.07 0.0757098 0 "
         result="color2"
         in="fbSourceGraphic" /></filter></defs><g
     inkscape:label="Layer 1"
     inkscape:groupmode="layer"
     id="layer1"><path
       style="fill:#000000"
       d="m 18.226641,271.33884 c -5.327155,-4.48253 -0.262705,-21.22853 7.21289,-38.8108 0.41733,-0.98156 0.41733,-0.98156 -0.82486,-1.70953 -65.622867,-38.45778 24.833848,-153.955745 79.208059,-130.10157 1.10263,0.62998 1.10263,0.62998 2.09517,-1.154307 7.621,-13.700243 17.98412,-26.912001 16.98455,-26.440987 C 84.463948,91.235043 60.603018,97.755767 48.287571,93.971443 30.224557,88.420986 38.771483,64.767439 70.041991,48.285625 59.485157,54.519477 28.902128,79.559351 47.618058,89.731409 65.443291,95.885367 123.84404,71.766802 128.71412,65.511356 c 32.50225,-41.748132 70.77151,-52.866409 72.31974,-49.170155 8.20907,19.598412 -49.91346,43.100972 -65.37133,50.789205 -4.62841,2.33753 -4.62841,2.33753 -6.96319,5.11565 -13.28111,15.803 -20.05189,32.531224 -21.58144,33.177044 -1.2811,0.53933 -2.01712,0.12728 -2.70831,-2.0966 -43.304306,-25.263918 -135.150485,80.8476 -77.308649,122.38658 1.12665,0.8091 1.12665,0.8091 3.27199,-3.5024 6.557096,-13.17793 11.089445,-15.36289 10.71476,-20.03607 -0.63329,-7.89828 -3.643411,-18.15216 -3.31774,-17.85162 2.668849,2.46286 4.762986,12.80348 6.18002,16.43386 0.989148,0.98915 16.444884,-29.63648 72.755869,-52.75686 24.53656,-8.9705 75.87206,-29.20984 87.48194,7.32523 16.57854,58.06993 -124.088389,97.54645 -161.686999,82.9527 -3.079757,5.6995 -15.151742,39.14252 -24.27417,33.0609 z m 16.377,-24.60008 c 1.255,-3.05848 3.16126,-8.84248 3.16126,-9.40054 -1.452058,-1.26346 -6.53851,-5.00252 -8.23731,-3.69633 -5.758253,4.42745 -17.907448,69.10839 5.07605,13.09687 z M 186.94585,187.53737 c 16.73692,-24.80306 4.08543,-54.9102 -41.76012,-45.02782 -22.4863,4.84707 -67.872039,26.05978 -98.211439,63.90038 -2.33023,2.90636 -2.33023,2.90636 -2.33249,8.65301 0.256767,6.11041 -0.69287,12.13411 -1.40342,18.17351 -0.0421,0.44261 0.37991,0.65063 2.81647,1.38836 48.6839,14.74016 123.433239,-21.21618 140.890999,-47.08744 z m -146.287559,27.3191 c -1.95787,2.65384 -8.71423,13.42198 -8.71423,13.88854 0,0.29398 6.91065,3.58573 7.17928,3.41971 0.426557,-0.26347 3.837273,-20.42901 1.53495,-17.30825 z M 196.77563,21.100524 c 0,-2.745969 -27.84907,11.070098 -55.34939,37.926192 -3.51655,3.43418 -3.82278,3.03372 2.43657,0.0299 18.68242,-10.822329 41.96614,-18.614436 52.91282,-37.956092 z"
       id="path5"
       sodipodi:nodetypes="sssssssssssssccssssssssssassassssssssssssscs" /></g></svg>
